# xmcd CD database file
# 
# Track frame offsets:
# 	150
# 	12812
# 	33478
# 	53831
# 	69651
# 	94833
# 	111798
# 	128450
# 	144416
# 	166352
# 	181733
# 	195516
# 	215858
# 	233448
# 	248394
# 	282073
# 
# Disc length: 4444 seconds
# 
# Submitted via: Nero 6, 3, 0, 2
# 
# Revision: 0
# Processed by: cddbd v1.5PL3 Copyright (c) Steve Scherf et al.
#
DISCID=cf115a10
DTITLE=Rory Ellis - Road of The Braver Man
DYEAR=1900
DGENRE=
TTITLE0=Big Picture
TTITLE1=Union Hotel
TTITLE2=Lambs
TTITLE3=Railway Parade
TTITLE4=Miguelito
TTITLE5=Road of the Braver Man
TTITLE6=Heaven to Hell
TTITLE7=Here Me Now
TTITLE8=Rollercoaster
TTITLE9=Good Friends
TTITLE10=My Sheet
TTITLE11=Eight Drops of Blood
TTITLE12=Let it go
TTITLE13=Last man Standing
TTITLE14=Million Dollar Question
TTITLE15=Lambs video Footage
EXTD=
EXTT0=
EXTT1=
EXTT2=
EXTT3=
EXTT4=
EXTT5=
EXTT6=
EXTT7=
EXTT8=
EXTT9=
EXTT10=
EXTT11=
EXTT12=
EXTT13=
EXTT14=
EXTT15=
PLAYORDER=
